<svg width="48" height="32" viewBox="0 0 48 32" fill="none" xmlns="http://www.w3.org/2000/svg">
<path d="M0 29.3333C0 30.8061 1.19391 32 2.66667 32H45.3333C46.8061 32 48 30.8061 48 29.3333V29.3333C48 27.8606 46.8061 26.6667 45.3333 26.6667H2.66667C1.19391 26.6667 0 27.8606 0 29.3333V29.3333ZM0 16C0 17.4728 1.19391 18.6667 2.66667 18.6667H45.3333C46.8061 18.6667 48 17.4728 48 16V16C48 14.5272 46.8061 13.3333 45.3333 13.3333H2.66667C1.19391 13.3333 0 14.5272 0 16V16ZM2.66667 0C1.19391 0 0 1.19391 0 2.66667V2.66667C0 4.13943 1.19391 5.33333 2.66667 5.33333H45.3333C46.8061 5.33333 48 4.13943 48 2.66667V2.66667C48 1.19391 46.8061 0 45.3333 0H2.66667Z" fill="black"/>
</svg>
